<svg width="35" height="12" viewBox="0 0 35 12" fill="none" xmlns="http://www.w3.org/2000/svg">
<path d="M11.9375 0.359375H12.6406C14.5573 0.359375 15.7031 1.01042 16.0781 2.3125C16.1979 2.73438 16.2578 3.22135 16.2578 3.77344V11H11.9375V0.359375ZM6.14062 0.359375H10.4844V11H6.14062V0.359375ZM0.328125 0.359375H4.67188V11H0.328125V0.359375ZM30.5625 0.351562H34.8828V7.58594C34.8828 8.73698 34.6198 9.58333 34.0938 10.125C33.5156 10.7083 32.5703 11 31.2578 11H30.5625V0.351562ZM18.9688 0.351562H23.2891V11H22.5938C20.6719 11 19.526 10.349 19.1562 9.04688C19.0312 8.625 18.9688 8.13802 18.9688 7.58594V0.351562ZM24.7578 0.359375H29.1016V11.0078H24.7578V0.359375Z" fill="#E50000"/>
</svg>
